External Loads File
version=1
nRows=70
nColumns=13
Range=5.000000e-03-10 seconds
endheader
time 	forceRightX 	forceRightY 	forceRightZ 	pointRightX 	pointRightY 	pointRightZ 	forceLeftX 	forceLeftY 	forceLeftZ 	pointLeftX 	pointLeftY 	pointLeftZ 		
0.005000 30.851831 132.392441 -0.000000 0.342766 0.387691 -0.124995 24.115697 159.500544 -0.000000 0.042452 0.246878 -0.360618
0.010000 30.265784 132.556137 -0.000000 0.342802 0.387647 -0.124998 26.338883 160.502768 -0.000000 0.042406 0.246928 -0.360630
0.015000 29.731747 132.772520 -0.000000 0.342823 0.387611 -0.124995 28.446320 161.495476 -0.000000 0.042377 0.246956 -0.360628
0.020000 29.398092 133.039373 -0.000000 0.342689 0.387227 -0.124906 30.479101 162.422035 -0.000000 0.042357 0.246974 -0.360813
0.025000 27.109070 133.820307 -0.000000 0.342702 0.386552 -0.124913 29.651177 163.729997 -0.000000 0.045012 0.242310 -0.356852
0.030000 25.617606 134.490413 -0.000000 0.342661 0.386879 -0.124930 29.239095 164.742192 -0.000000 0.044472 0.238996 -0.355198
0.035000 28.493498 134.326115 -0.000000 0.342606 0.387810 -0.124944 33.664329 164.609352 -0.000000 0.042347 0.246889 -0.360723
0.040000 28.439009 134.741427 -0.000000 0.342590 0.387835 -0.124918 34.140457 165.060915 -0.000000 0.042376 0.246851 -0.360730
0.045000 28.412844 135.101236 -0.000000 0.342541 0.387885 -0.124915 34.487558 165.467166 -0.000000 0.042403 0.246795 -0.360740
0.050000 28.528943 135.364361 -0.000000 0.342525 0.387639 -0.124977 34.975423 165.830219 -0.000000 0.042456 0.246740 -0.360733
0.055000 28.243262 135.649976 -0.000000 0.342482 0.388501 -0.125021 34.935621 166.271932 -0.000000 0.042509 0.246658 -0.360727
0.060000 28.285846 135.823511 -0.000000 0.342423 0.388581 -0.124993 35.153566 166.542176 -0.000000 0.042560 0.246591 -0.360735
0.065000 28.429166 135.952047 -0.000000 0.342666 0.388609 -0.125072 35.224257 166.635413 -0.000000 0.042611 0.246515 -0.360728
0.070000 28.633742 136.054922 -0.000000 0.342602 0.388370 -0.125057 35.033912 166.534378 -0.000000 0.042660 0.246408 -0.360739
0.075000 28.704712 136.172679 -0.000000 0.342345 0.388453 -0.125092 34.384251 166.307624 -0.000000 0.042704 0.246320 -0.360728
0.080000 28.805492 136.260869 -0.000000 0.342298 0.388527 -0.125192 33.624040 165.971788 -0.000000 0.042759 0.246234 -0.360719
0.085000 28.883028 136.313923 -0.000000 0.342259 0.388597 -0.125178 32.889896 165.618276 -0.000000 0.042785 0.246174 -0.360708
0.090000 28.884237 136.326054 -0.000000 0.342237 0.388666 -0.125194 32.284787 165.324847 -0.000000 0.042814 0.246100 -0.360711
0.095000 28.810938 136.292483 -0.000000 0.342220 0.388718 -0.125182 31.881686 165.125602 -0.000000 0.042827 0.246036 -0.360709
0.100000 28.691358 136.217683 -0.000000 0.342234 0.388735 -0.125187 31.687182 165.016462 -0.000000 0.042842 0.246005 -0.360705
0.105000 28.502014 136.116234 -0.000000 0.342236 0.388770 -0.125184 31.592923 164.976476 -0.000000 0.042830 0.245961 -0.360725
0.110000 28.273995 135.983075 -0.000000 0.342247 0.388801 -0.125193 31.544481 164.954707 -0.000000 0.042824 0.245941 -0.360735
0.115000 28.006929 135.823817 -0.000000 0.342216 0.388816 -0.125199 31.458755 164.913596 -0.000000 0.042813 0.245913 -0.360559
0.120000 27.753098 135.645606 -0.000000 0.342195 0.388822 -0.124825 31.371372 164.841664 -0.000000 0.042781 0.245933 -0.360562
0.125000 27.521828 135.471558 -0.000000 0.342219 0.388816 -0.124836 31.350841 164.790018 -0.000000 0.042749 0.245931 -0.360567
0.130000 27.347771 135.321051 -0.000000 0.342260 0.388803 -0.124857 31.506182 164.819075 -0.000000 0.042736 0.245945 -0.360555
0.135000 27.231109 135.217914 -0.000000 0.342304 0.388820 -0.124895 31.802717 164.950860 -0.000000 0.042711 0.245927 -0.360556
0.140000 27.202080 135.168459 -0.000000 0.342327 0.388854 -0.124893 32.144666 165.135038 -0.000000 0.042680 0.245934 -0.360554
0.145000 27.238299 135.169643 -0.000000 0.342350 0.388853 -0.124912 32.387212 165.305707 -0.000000 0.042669 0.245920 -0.360552
0.150000 27.258871 135.210891 -0.000000 0.342356 0.388887 -0.124902 32.422882 165.431912 -0.000000 0.042661 0.245887 -0.360556
0.155000 27.232653 135.262672 -0.000000 0.342366 0.388906 -0.124892 32.312012 165.512658 -0.000000 0.042678 0.245833 -0.360539
0.160000 27.125730 135.306332 -0.000000 0.342333 0.388972 -0.124856 32.134814 165.579511 -0.000000 0.042696 0.245761 -0.360545
0.165000 27.016754 135.329288 -0.000000 0.342302 0.389031 -0.124840 32.046555 165.644268 -0.000000 0.042719 0.245699 -0.360549
0.170000 26.932051 135.349749 -0.000000 0.342265 0.389105 -0.124804 32.059467 165.713800 -0.000000 0.042763 0.245613 -0.360528
0.175000 26.906679 135.372685 -0.000000 0.342238 0.389188 -0.124822 32.156709 165.761740 -0.000000 0.042809 0.245526 -0.360520
0.180000 26.895234 135.394957 -0.000000 0.342190 0.389286 -0.124834 32.217994 165.752855 -0.000000 0.042866 0.245409 -0.360526
0.185000 26.886575 135.399498 -0.000000 0.342146 0.389376 -0.124856 32.176911 165.639568 -0.000000 0.042937 0.245305 -0.360525
0.190000 26.842864 135.384567 -0.000000 0.342098 0.389456 -0.124864 31.985689 165.419830 -0.000000 0.043004 0.245176 -0.360529
0.195000 26.769192 135.352755 -0.000000 0.342065 0.389548 -0.124903 31.738475 165.148444 -0.000000 0.043075 0.245073 -0.360529
0.200000 26.650517 135.319389 -0.000000 0.342010 0.389672 -0.124886 31.538246 164.915502 -0.000000 0.043149 0.244967 -0.360559
0.205000 26.528517 135.294812 -0.000000 0.341948 0.389768 -0.124892 31.470955 164.759022 -0.000000 0.043223 0.244847 -0.360580
0.210000 26.423896 135.294403 -0.000000 0.341901 0.389896 -0.124909 31.476932 164.659960 -0.000000 0.043283 0.244760 -0.360585
0.215000 26.338430 135.327637 -0.000000 0.341846 0.390049 -0.124902 31.426527 164.570897 -0.000000 0.043333 0.244676 -0.360590
0.220000 26.334377 135.378044 -0.000000 0.341827 0.390119 -0.125182 31.288269 164.434678 -0.000000 0.043376 0.244608 -0.360595
0.225000 26.372911 135.432621 -0.000000 0.341783 0.390175 -0.124897 30.984364 164.245293 -0.000000 0.043415 0.244545 -0.360592
0.230000 26.502198 135.442362 -0.000000 0.342074 0.390221 -0.125131 30.669757 164.009955 -0.000000 0.043447 0.244497 -0.360598
0.235000 26.508476 135.404941 -0.000000 0.341945 0.390300 -0.125137 30.284477 163.818585 -0.000000 0.043467 0.244425 -0.360594
0.240000 26.491826 135.283154 -0.000000 0.341866 0.390328 -0.125123 30.130768 163.695874 -0.000000 0.043474 0.244385 -0.360595
0.245000 26.440638 135.101474 -0.000000 0.341882 0.390356 -0.125110 30.262896 163.681792 -0.000000 0.043470 0.244367 -0.360608
0.250000 26.368209 134.901080 -0.000000 0.341917 0.390379 -0.125100 30.660557 163.792993 -0.000000 0.043455 0.244350 -0.360612
0.255000 26.311854 134.717217 -0.000000 0.341954 0.390383 -0.125141 31.265824 164.016392 -0.000000 0.043444 0.244329 -0.360612
0.260000 26.317673 134.572403 -0.000000 0.341991 0.390384 -0.125137 31.981539 164.303641 -0.000000 0.043411 0.244338 -0.360614
0.265000 26.371921 134.484348 -0.000000 0.341991 0.390389 -0.125059 32.630837 164.601864 -0.000000 0.043403 0.244336 -0.360615
0.270000 26.473537 134.451864 -0.000000 0.341871 0.390396 -0.124795 33.125686 164.876620 -0.000000 0.043367 0.244319 -0.360608
0.275000 26.644023 134.463734 -0.000000 0.341854 0.390426 -0.125053 33.525280 165.130539 -0.000000 0.043359 0.244322 -0.360603
0.280000 26.773488 134.536545 -0.000000 0.341565 0.390466 -0.124699 33.796238 165.416672 -0.000000 0.043345 0.244291 -0.360582
0.285000 27.002960 134.631872 -0.000000 0.341842 0.390494 -0.125062 34.174474 165.696341 -0.000000 0.043344 0.244287 -0.360578
0.290000 27.107022 134.776516 -0.000000 0.341841 0.390558 -0.125056 34.348568 165.977627 -0.000000 0.043348 0.244232 -0.360564
0.295000 27.165139 134.941490 -0.000000 0.341816 0.390604 -0.125064 34.316813 166.178326 -0.000000 0.043375 0.244154 -0.360562
0.300000 27.450675 135.070250 -0.000000 0.343005 0.390646 -0.124945 34.331544 166.200289 -0.000000 0.043402 0.244089 -0.360568
0.305000 27.354535 135.284221 -0.000000 0.341865 0.390716 -0.125206 33.645921 166.219112 -0.000000 0.043437 0.244018 -0.360572
0.310000 27.499174 135.441456 -0.000000 0.341826 0.390807 -0.125213 33.119451 166.125262 -0.000000 0.043476 0.243914 -0.360580
0.315000 27.683327 135.559040 -0.000000 0.341755 0.390910 -0.125214 32.622702 166.009059 -0.000000 0.043531 0.243802 -0.360575
0.320000 27.931956 135.620316 -0.000000 0.341734 0.390989 -0.125106 32.260608 165.880192 -0.000000 0.043594 0.243724 -0.360555
0.325000 28.179774 135.648347 -0.000000 0.341684 0.391083 -0.125094 31.964505 165.753002 -0.000000 0.043654 0.243614 -0.360553
0.330000 28.429180 135.661639 -0.000000 0.341608 0.391175 -0.125114 31.704866 165.612149 -0.000000 0.043709 0.243510 -0.360562
0.335000 28.636842 135.680754 -0.000000 0.341498 0.391277 -0.124929 31.385167 165.441174 -0.000000 0.043779 0.243415 -0.360561
0.340000 28.809867 135.708028 -0.000000 0.341456 0.391361 -0.124946 30.999997 165.227955 -0.000000 0.043837 0.243340 -0.360556
0.345000 28.910590 135.755222 -0.000000 0.341411 0.391452 -0.124928 30.554234 165.017292 -0.000000 0.043885 0.243254 -0.360557
0.350000 28.962900 135.816206 -0.000000 0.341361 0.391525 -0.124953 30.169712 164.863156 -0.000000 0.043918 0.243160 -0.360566
